<svg xmlns="http://www.w3.org/2000/svg" viewBox="0 0 512 768" width="512" height="768" role="img">
  
  <defs>
    <linearGradient id="suit" x1="0" y1="0" x2="0" y2="1">
      <stop offset="0%" stop-color="#5A678A"/>
      <stop offset="100%" stop-color="#39435C"/>
    </linearGradient>
    <linearGradient id="limb" x1="0" y1="0" x2="0" y2="1">
      <stop offset="0%" stop-color="#4C5877"/>
      <stop offset="100%" stop-color="#2C3448"/>
    </linearGradient>
    <radialGradient id="skin" cx="35%" cy="30%" r="80%">
      <stop offset="0%" stop-color="#F3D6BC"/>
      <stop offset="100%" stop-color="#C89A79"/>
    </radialGradient>
  </defs>
  <defs></defs>
  
  <ellipse cx="256" cy="688" rx="168" ry="26" fill="#0B0E15" opacity="0.45"/>
  
  <g transform="translate(256 360) rotate(0) translate(-256 -360)">
    
    <circle cx="256" cy="118" r="46" fill="url(#skin)" stroke="#0B0E15" stroke-width="5"/>
    
    <rect x="196" y="172" width="120" height="196" rx="26" fill="url(#suit)" stroke="#0B0E15" stroke-width="5"/>
    
    <g transform="rotate(-150 157 274)">
      <rect x="126" y="186" width="62" height="176" rx="31" fill="url(#limb)" stroke="#0B0E15" stroke-width="5"/>
    </g>
    
    <g transform="rotate(-150 355 274)">
      <rect x="324" y="186" width="62" height="176" rx="31" fill="url(#limb)" stroke="#0B0E15" stroke-width="5"/>
    </g>
    
    <g transform="rotate(2 231 497)">
      <rect x="204" y="372" width="54" height="250" rx="27" fill="url(#limb)" stroke="#0B0E15" stroke-width="5"/>
    </g>
    
    <g transform="rotate(-2 281 497)">
      <rect x="254" y="372" width="54" height="250" rx="27" fill="url(#limb)" stroke="#0B0E15" stroke-width="5"/>
    </g>
    <path d="M228 372 L256 430 L284 372" fill="none" stroke="#F5C542" stroke-width="10" stroke-linecap="round" stroke-linejoin="round"/>
  </g>
    <circle cx="256" cy="96" r="52" fill="none" stroke="#F5C542" stroke-width="8" opacity="0.9"/>
    <g stroke="#FFE9A8" stroke-width="6" stroke-linecap="round" opacity="0.85">
      <line x1="120" y1="700" x2="392" y2="700"/>
    </g>
</svg>
